<svg width="38" height="38" viewBox="0 0 38 38" fill="none" xmlns="http://www.w3.org/2000/svg">
<g id="bi:gear" clip-path="url(#clip0_405_668)">
<g id="Group">
<path id="Vector" d="M19.0003 11.2908C17.9879 11.2908 16.9854 11.4902 16.0501 11.8776C15.1147 12.265 14.2649 12.8329 13.549 13.5488C12.8331 14.2646 12.2653 15.1145 11.8778 16.0498C11.4904 16.9851 11.291 17.9876 11.291 19C11.291 20.0124 11.4904 21.0149 11.8778 21.9502C12.2653 22.8856 12.8331 23.7354 13.549 24.4513C14.2649 25.1672 15.1147 25.735 16.0501 26.1224C16.9854 26.5099 17.9879 26.7093 19.0003 26.7093C21.0449 26.7093 23.0058 25.897 24.4515 24.4513C25.8973 23.0055 26.7095 21.0446 26.7095 19C26.7095 16.9554 25.8973 14.9945 24.4515 13.5488C23.0058 12.103 21.0449 11.2908 19.0003 11.2908ZM13.666 19C13.666 17.5853 14.228 16.2285 15.2284 15.2281C16.2287 14.2278 17.5855 13.6658 19.0003 13.6658C20.415 13.6658 21.7718 14.2278 22.7721 15.2281C23.7725 16.2285 24.3345 17.5853 24.3345 19C24.3345 20.4148 23.7725 21.7715 22.7721 22.7719C21.7718 23.7723 20.415 24.3343 19.0003 24.3343C17.5855 24.3343 16.2287 23.7723 15.2284 22.7719C14.228 21.7715 13.666 20.4148 13.666 19Z" fill="black"/>
<path id="Vector_2" d="M23.2658 3.1899C22.0142 -1.06135 15.9864 -1.06135 14.7348 3.1899L14.5115 3.94753C14.4241 4.24429 14.2714 4.51773 14.0646 4.7478C13.8578 4.97788 13.6021 5.15876 13.3163 5.27718C13.0305 5.3956 12.7218 5.44856 12.4129 5.43218C12.1039 5.4158 11.8026 5.3305 11.5309 5.18253L10.8374 4.80253C6.9424 2.68403 2.68403 6.94478 4.8049 10.8374L5.18253 11.5309C5.3305 11.8026 5.4158 12.1039 5.43218 12.4129C5.44856 12.7218 5.3956 13.0305 5.27718 13.3163C5.15876 13.6021 4.97788 13.8578 4.7478 14.0646C4.51773 14.2714 4.24429 14.4241 3.94753 14.5115L3.1899 14.7348C-1.06135 15.9864 -1.06135 22.0142 3.1899 23.2658L3.94753 23.489C4.24429 23.5764 4.51773 23.7291 4.7478 23.936C4.97788 24.1428 5.15876 24.3985 5.27718 24.6843C5.3956 24.9701 5.44856 25.2788 5.43218 25.5877C5.4158 25.8966 5.3305 26.198 5.18253 26.4697L4.80253 27.1632C2.68403 31.0582 6.9424 35.3189 10.8374 33.1957L11.5309 32.818C11.8026 32.6701 12.1039 32.5848 12.4129 32.5684C12.7218 32.552 13.0305 32.605 13.3163 32.7234C13.6021 32.8418 13.8578 33.0227 14.0646 33.2528C14.2714 33.4828 14.4241 33.7563 14.5115 34.053L14.7348 34.8107C15.9864 39.0619 22.0142 39.0619 23.2658 34.8107L23.489 34.053C23.5764 33.7563 23.7291 33.4828 23.936 33.2528C24.1428 33.0227 24.3985 32.8418 24.6843 32.7234C24.9701 32.605 25.2788 32.552 25.5877 32.5684C25.8966 32.5848 26.198 32.6701 26.4697 32.818L27.1632 33.198C31.0582 35.3189 35.3189 31.0558 33.1957 27.1632L32.818 26.4697C32.6701 26.198 32.5848 25.8966 32.5684 25.5877C32.552 25.2788 32.605 24.9701 32.7234 24.6843C32.8418 24.3985 33.0227 24.1428 33.2528 23.936C33.4828 23.7291 33.7563 23.5764 34.053 23.489L34.8107 23.2658C39.0619 22.0142 39.0619 15.9864 34.8107 14.7348L34.053 14.5115C33.7563 14.4241 33.4828 14.2714 33.2528 14.0646C33.0227 13.8578 32.8418 13.6021 32.7234 13.3163C32.605 13.0305 32.552 12.7218 32.5684 12.4129C32.5848 12.1039 32.6701 11.8026 32.818 11.5309L33.198 10.8374C35.3189 6.9424 31.0558 2.68403 27.1632 4.8049L26.4697 5.18253C26.198 5.3305 25.8966 5.4158 25.5877 5.43218C25.2788 5.44856 24.9701 5.3956 24.6843 5.27718C24.3985 5.15876 24.1428 4.97788 23.936 4.7478C23.7291 4.51773 23.5764 4.24429 23.489 3.94753L23.2658 3.1899ZM17.0124 3.86203C17.5967 1.8789 20.4039 1.8789 20.9882 3.86203L21.2114 4.61965C21.3991 5.25635 21.7269 5.84299 22.1707 6.33654C22.6146 6.83009 23.1633 7.21805 23.7766 7.47198C24.3899 7.72591 25.0522 7.83936 25.7151 7.80403C26.3779 7.76869 27.0245 7.58547 27.6073 7.26778L28.2984 6.88778C30.1129 5.90215 32.0984 7.88528 31.1104 9.70215L30.7328 10.3957C30.4156 10.9785 30.2328 11.625 30.1978 12.2877C30.1629 12.9504 30.2766 13.6125 30.5308 14.2255C30.7849 14.8386 31.173 15.387 31.6666 15.8305C32.1601 16.2741 32.7467 16.6017 33.3833 16.7892L34.1385 17.0124C36.1217 17.5967 36.1217 20.4039 34.1385 20.9882L33.3809 21.2114C32.7442 21.3991 32.1576 21.7269 31.664 22.1707C31.1705 22.6146 30.7825 23.1633 30.5286 23.7766C30.2746 24.3899 30.1612 25.0522 30.1965 25.7151C30.2319 26.3779 30.4151 27.0245 30.7328 27.6073L31.1128 28.2984C32.0984 30.1129 30.1153 32.0984 28.2984 31.1104L27.6073 30.7328C27.0243 30.4151 26.3776 30.232 25.7146 30.1968C25.0517 30.1616 24.3892 30.2753 23.7759 30.5294C23.1626 30.7836 22.6139 31.1718 22.1701 31.6657C21.7264 32.1595 21.3988 32.7464 21.2114 33.3833L20.9882 34.1385C20.4039 36.1217 17.5967 36.1217 17.0124 34.1385L16.7892 33.3809C16.6014 32.7445 16.2737 32.1582 15.83 31.6649C15.3863 31.1716 14.8378 30.7838 14.2248 30.5299C13.6118 30.276 12.9498 30.1625 12.2873 30.1976C11.6247 30.2327 10.9784 30.4155 10.3957 30.7328L9.70215 31.1128C7.88765 32.0984 5.90215 30.1153 6.89015 28.2984L7.26778 27.6073C7.58591 27.0244 7.7695 26.3776 7.80507 25.7145C7.84063 25.0514 7.72728 24.3887 7.47332 23.7751C7.21936 23.1615 6.83124 22.6125 6.33744 22.1685C5.84364 21.7245 5.25669 21.3966 4.61965 21.209L3.86203 20.9858C1.8789 20.4015 1.8789 17.5943 3.86203 17.01L4.61965 16.7868C5.25569 16.5989 5.84168 16.2713 6.33474 15.8277C6.8278 15.3842 7.21544 14.836 7.4693 14.2233C7.72317 13.6106 7.83682 12.949 7.80195 12.2867C7.76708 11.6244 7.58457 10.9783 7.26778 10.3957L6.88778 9.70215C5.90215 7.88765 7.88528 5.90215 9.70215 6.89015L10.3957 7.26778C10.9784 7.58502 11.6247 7.76789 12.2873 7.80299C12.9498 7.83809 13.6118 7.72454 14.2248 7.47064C14.8378 7.21675 15.3863 6.82894 15.83 6.33564C16.2737 5.84233 16.6014 5.25602 16.7892 4.61965L17.0124 3.86203Z" fill="black"/>
</g>
</g>
<defs>
<clipPath id="clip0_405_668">
<rect width="38" height="38" fill="white"/>
</clipPath>
</defs>
</svg>
