<svg width="29" height="29" viewBox="0 0 29 29" fill="none" xmlns="http://www.w3.org/2000/svg">
<g id="material-symbols-light:hearing-disabled">
<path id="Vector" d="M25.5081 27.2237L16.4009 18.1177C15.6573 18.7654 15.0822 19.2797 14.6754 19.6607C14.2686 20.0418 13.9528 20.3688 13.728 20.6419C13.5033 20.915 13.3353 21.18 13.2241 21.437C13.113 21.694 12.9776 22.0416 12.8181 22.4798C12.4154 23.6317 11.8402 24.5029 11.0926 25.0934C10.3451 25.6839 9.45898 25.9791 8.43432 25.9791C7.36937 25.9791 6.44097 25.6376 5.64911 24.9544C4.85725 24.2713 4.39163 23.4046 4.25227 22.3541H5.50773C5.64709 23.0501 5.9959 23.6269 6.55415 24.0844C7.1124 24.542 7.73952 24.7708 8.43552 24.7708C9.19919 24.7708 9.84001 24.5501 10.358 24.1086C10.8768 23.6672 11.3327 22.9446 11.7258 21.9409C11.9167 21.443 12.0831 21.0415 12.2249 20.7362C12.3674 20.4317 12.5612 20.1296 12.8061 19.8299C13.051 19.5294 13.3841 19.1887 13.8054 18.8077C14.2267 18.4266 14.8067 17.9115 15.5454 17.2622L6.1409 7.85653C5.94515 8.21742 5.79088 8.60046 5.67811 9.00566C5.56533 9.41085 5.49283 9.83256 5.46061 10.2708H4.25227C4.28369 9.65534 4.38438 9.06929 4.55436 8.51266C4.72513 7.95602 4.94988 7.43361 5.22861 6.94545L2.28027 3.99711L3.14182 3.13436L26.3696 26.3622L25.5081 27.2237ZM22.0474 18.6433L21.1859 17.7818C21.9519 16.7571 22.536 15.6616 22.9379 14.4951C23.3391 13.3271 23.5397 12.1203 23.5397 10.8749C23.5397 9.43623 23.29 8.05993 22.7905 6.74607C22.2911 5.43221 21.5508 4.23073 20.5696 3.14161L21.4396 2.33203C22.5021 3.50814 23.319 4.83328 23.8901 6.30745C24.4612 7.78161 24.7472 9.30411 24.748 10.8749C24.748 12.2831 24.5176 13.6473 24.0569 14.9676C23.5977 16.2871 22.9279 17.5123 22.0474 18.6433ZM18.7789 15.3736L17.8629 14.4577C18.1465 13.9018 18.358 13.3234 18.4973 12.7225C18.6367 12.1215 18.706 11.5057 18.7051 10.8749C18.7051 9.00848 18.0643 7.43402 16.7827 6.15157C15.5011 4.86913 13.9266 4.22831 12.0593 4.22911C11.4439 4.22911 10.8417 4.31007 10.2529 4.47199C9.664 4.63391 9.10695 4.86913 8.58173 5.17766L7.68273 4.27866C8.32556 3.86138 9.01834 3.54721 9.76107 3.33616C10.5054 3.12591 11.2719 3.02078 12.0605 3.02078C14.3024 3.02078 16.1717 3.76955 17.6684 5.26707C19.1651 6.7646 19.9139 8.63389 19.9147 10.8749C19.9147 11.7039 19.8204 12.4953 19.6319 13.2493C19.4442 14.0025 19.1595 14.7106 18.7776 15.3736M14.5968 11.1903L11.7367 8.33382C11.7915 8.32496 11.8442 8.32053 11.895 8.32053H12.0605C12.7823 8.32053 13.3889 8.56623 13.8803 9.05761C14.3717 9.5482 14.6174 10.1544 14.6174 10.8762C14.6174 10.935 14.6157 10.9889 14.6125 11.0381C14.6101 11.0864 14.6045 11.1376 14.5956 11.1915M12.0593 13.433C11.3367 13.433 10.7301 13.1861 10.2396 12.6923C9.74898 12.1985 9.50369 11.5927 9.50369 10.8749C9.50369 10.6752 9.52262 10.4818 9.56048 10.2949C9.59754 10.1064 9.66319 9.9252 9.75744 9.7512L13.1915 13.1853C13.0167 13.2747 12.8347 13.3379 12.6454 13.375C12.4561 13.412 12.2611 13.4306 12.0605 13.4306" fill="black"/>
</g>
</svg>
