<svg width="29" height="29" viewBox="0 0 29 29" fill="none" xmlns="http://www.w3.org/2000/svg">
<g id="ic:round-emoji-people">
<path id="Vector" d="M14.5002 7.25008C15.8349 7.25008 16.9168 6.1681 16.9168 4.83341C16.9168 3.49873 15.8349 2.41675 14.5002 2.41675C13.1655 2.41675 12.0835 3.49873 12.0835 4.83341C12.0835 6.1681 13.1655 7.25008 14.5002 7.25008Z" fill="black"/>
<path id="Vector_2" d="M19.2002 9.79966C18.7289 9.32841 17.9194 8.45841 16.3485 8.45841H13.2794C11.8579 8.45161 10.484 7.9458 9.39743 7.0293C8.31087 6.11279 7.5807 4.8438 7.33436 3.44383C7.29128 3.15982 7.14843 2.90044 6.93142 2.71222C6.71441 2.524 6.43745 2.41924 6.1502 2.41675C5.41311 2.41675 4.83311 3.06925 4.94186 3.79425C5.20541 5.3575 5.90055 6.816 6.94886 8.00523C7.99717 9.19445 9.35694 10.0671 10.8748 10.5247V25.3751C10.8748 26.0397 11.4185 26.5834 12.0831 26.5834C12.7477 26.5834 13.2914 26.0397 13.2914 25.3751V19.3334H15.7081V25.3751C15.7081 26.0397 16.2519 26.5834 16.9164 26.5834C17.581 26.5834 18.1248 26.0397 18.1248 25.3751V12.1438L22.0398 16.0588C22.1516 16.1707 22.2845 16.2594 22.4306 16.32C22.5768 16.3805 22.7334 16.4117 22.8917 16.4117C23.0499 16.4117 23.2065 16.3805 23.3527 16.32C23.4989 16.2594 23.6317 16.1707 23.7435 16.0588C23.8554 15.947 23.9441 15.8142 24.0047 15.668C24.0652 15.5218 24.0964 15.3652 24.0964 15.207C24.0964 15.0487 24.0652 14.8921 24.0047 14.7459C23.9441 14.5998 23.8554 14.467 23.7435 14.3551L19.2002 9.79966Z" fill="black"/>
</g>
</svg>
