<svg width="24" height="24" viewBox="0 0 24 24" fill="none" xmlns="http://www.w3.org/2000/svg">
<g id="ic:sharp-disabled-visible">
<path id="Vector" d="M21.99 12.34C22 12.23 22 12.11 22 12C22 6.48 17.52 2 12 2C6.48 2 2 6.48 2 12C2 17.17 5.93 21.43 10.96 21.95C10.022 21.2137 9.23436 20.3038 8.64 19.27C7.25366 18.6271 6.08017 17.601 5.25801 16.3128C4.43586 15.0246 3.99935 13.5282 4 12C4 10.15 4.63 8.45 5.69 7.1L11.35 12.76C11.91 12.36 12.52 12.03 13.17 11.76L7.1 5.69C8.49679 4.59163 10.2231 3.99623 12 4C16.24 4 19.7 7.29 19.98 11.45C20.69 11.67 21.37 11.97 21.99 12.34ZM17 13C13.82 13 11.1 14.87 10 17.5C11.1 20.13 13.82 22 17 22C20.18 22 22.9 20.13 24 17.5C22.9 14.87 20.18 13 17 13ZM17 20C16.337 20 15.7011 19.7366 15.2322 19.2678C14.7634 18.7989 14.5 18.163 14.5 17.5C14.5 16.837 14.7634 16.2011 15.2322 15.7322C15.7011 15.2634 16.337 15 17 15C17.663 15 18.2989 15.2634 18.7678 15.7322C19.2366 16.2011 19.5 16.837 19.5 17.5C19.5 18.163 19.2366 18.7989 18.7678 19.2678C18.2989 19.7366 17.663 20 17 20ZM18.5 17.5C18.5 18.33 17.83 19 17 19C16.17 19 15.5 18.33 15.5 17.5C15.5 16.67 16.17 16 17 16C17.83 16 18.5 16.67 18.5 17.5Z" fill="black"/>
</g>
</svg>
