<svg width="34" height="34" viewBox="0 0 34 34" fill="none" xmlns="http://www.w3.org/2000/svg">
<g id="tabler:disabled">
<g id="Group">
<path id="Vector" d="M12.75 7.08333C12.75 7.83478 13.0485 8.55545 13.5799 9.0868C14.1112 9.61816 14.8319 9.91667 15.5833 9.91667C16.3348 9.91667 17.0554 9.61816 17.5868 9.0868C18.1182 8.55545 18.4167 7.83478 18.4167 7.08333C18.4167 6.33189 18.1182 5.61122 17.5868 5.07986C17.0554 4.54851 16.3348 4.25 15.5833 4.25C14.8319 4.25 14.1112 4.54851 13.5799 5.07986C13.0485 5.61122 12.75 6.33189 12.75 7.08333Z" stroke="black" stroke-width="2" stroke-linecap="round" stroke-linejoin="round"/>
<path id="Vector_2" d="M15.5833 9.91675V21.2501H21.2499L26.9166 28.3334M15.5833 15.5834H22.6666M9.9166 16.2917C8.90155 16.7121 7.99819 17.3628 7.27795 18.1924C6.5577 19.0221 6.04031 20.0079 5.76668 21.0719C5.49304 22.1359 5.47066 23.249 5.70131 24.3232C5.93196 25.3973 6.40932 26.4031 7.09564 27.261C7.78196 28.1189 8.65843 28.8054 9.65576 29.2662C10.6531 29.727 11.744 29.9495 12.8421 29.9162C13.9402 29.8828 15.0156 29.5944 15.983 29.0738C16.9505 28.5533 17.7837 27.8148 18.4166 26.9167" stroke="black" stroke-width="2" stroke-linecap="round" stroke-linejoin="round"/>
</g>
</g>
</svg>
